<svg xmlns="http://www.w3.org/2000/svg" xmlns:xlink="http://www.w3.org/1999/xlink" version="1.1" x="0px" y="0px" viewBox="0 0 100 125" enable-background="new 0 0 100 100" xml:space="preserve"><g><path d="M72.645,79.619H27.353c-1.919,0-3.48-1.563-3.48-3.482c0-1.918,1.562-3.479,3.48-3.479h45.292   c1.92,0,3.482,1.561,3.482,3.479C76.127,78.057,74.564,79.619,72.645,79.619z M27.353,74.184c-1.078,0-1.955,0.875-1.955,1.953   s0.877,1.955,1.955,1.955h45.292c1.078,0,1.956-0.877,1.956-1.955s-0.878-1.953-1.956-1.953H27.353z"/></g><g><path d="M77.725,93.1h-55.45v-9.451c0-1.412,1.148-2.561,2.561-2.561h50.329c1.411,0,2.561,1.148,2.561,2.561V93.1z M23.801,91.572   h52.396v-7.924c0-0.57-0.463-1.033-1.033-1.033H24.835c-0.57,0-1.034,0.463-1.034,1.033V91.572z"/></g><g><path d="M72.674,71.291H25.405l1.395-1.316c0.151-0.143,15.139-14.52,15.139-32.504v-0.763h16.12v0.763   c0,17.984,14.988,32.361,15.139,32.504l1.395,1.316H72.674z M29.126,69.766h41.746c-3.67-3.963-13.991-16.426-14.331-31.532H43.457   C43.117,53.34,32.796,65.803,29.126,69.766z"/></g><g><path d="M49.999,35.238c-7.813,0-14.169-6.356-14.169-14.169c0-7.813,6.356-14.169,14.169-14.169   c7.813,0,14.169,6.356,14.169,14.169C64.168,28.882,57.813,35.238,49.999,35.238z M49.999,8.426   c-6.971,0-12.643,5.672-12.643,12.643c0,6.972,5.672,12.643,12.643,12.643c6.972,0,12.644-5.671,12.644-12.643   C62.643,14.098,56.971,8.426,49.999,8.426z"/></g><text x="0" y="115" fill="#000000" font-size="5px" font-weight="bold" font-family="'Helvetica Neue', Helvetica, Arial-Unicode, Arial, Sans-serif">Created by Bakunetsu Kaito</text><text x="0" y="120" fill="#000000" font-size="5px" font-weight="bold" font-family="'Helvetica Neue', Helvetica, Arial-Unicode, Arial, Sans-serif">from the Noun Project</text></svg>