<svg xmlns="http://www.w3.org/2000/svg" xmlns:xlink="http://www.w3.org/1999/xlink" version="1.1" x="0px" y="0px" viewBox="0 0 100 125" enable-background="new 0 0 100 100" xml:space="preserve"><g><path d="M69.95,80.248c0,1.181-0.958,2.138-2.138,2.138H32.187c-1.181,0-2.137-0.957-2.137-2.138l0,0   c0-1.181,0.956-2.138,2.137-2.138h35.626C68.992,78.11,69.95,79.067,69.95,80.248L69.95,80.248z"/></g><g><path d="M28.793,92.989v-6.834c0-0.78,0.633-1.413,1.414-1.413h39.586c0.781,0,1.414,0.633,1.414,1.413v6.834H28.793z"/></g><g><path d="M67.835,75.837c0,0-12.096-20.849-12.096-47.469H44.261c0,26.62-12.097,47.469-12.097,47.469H67.835z"/></g><g><path d="M62.548,7.011h-2.881v11.68h-2.522V7.011h-5.884v11.68h-2.521V7.011h-5.884v11.68h-2.521V7.011h-2.882   c-0.915,0-1.655,0.807-1.655,1.801l1.199,16.005c0,0.994,0.741,1.801,1.656,1.801h22.694c0.915,0,1.656-0.807,1.656-1.801   l1.2-16.005C64.203,7.817,63.463,7.011,62.548,7.011z"/></g><text x="0" y="115" fill="#000000" font-size="5px" font-weight="bold" font-family="'Helvetica Neue', Helvetica, Arial-Unicode, Arial, Sans-serif">Created by Bakunetsu Kaito</text><text x="0" y="120" fill="#000000" font-size="5px" font-weight="bold" font-family="'Helvetica Neue', Helvetica, Arial-Unicode, Arial, Sans-serif">from the Noun Project</text></svg>