<?xml version="1.0" encoding="utf-8"?>
<!-- Generator: Adobe Illustrator 20.1.0, SVG Export Plug-In . SVG Version: 6.00 Build 0)  -->
<svg version="1.1" id="Livello_1" xmlns="http://www.w3.org/2000/svg" xmlns:xlink="http://www.w3.org/1999/xlink" x="0px" y="0px"
	 viewBox="0 0 100 125" style="enable-background:new 0 0 100 125;" xml:space="preserve">
<style type="text/css">
	.st0{fill:#FFFFFF;stroke:#000000;stroke-miterlimit:10;}
	.st1{fill:none;stroke:#000000;stroke-width:0.25;stroke-miterlimit:10;}
</style>
<g>
	<g>
		<path class="st0" d="M66.6,94.5c0,1-0.8,1.8-1.8,1.8H35.2c-1,0-1.8-0.8-1.8-1.8l0,0c0-1,0.8-1.8,1.8-1.8h29.6
			C65.8,92.8,66.6,93.6,66.6,94.5L66.6,94.5z"/>
	</g>
	<g>
		<path class="st0" d="M32.4,105.1v-5.7c0-0.6,0.5-1.2,1.2-1.2h32.9c0.6,0,1.2,0.5,1.2,1.2v5.7H32.4z"/>
	</g>
	<g>
		<path class="st0" d="M64.8,90.9c0,0-10-17.3-10-39.4h-9.5c0,22.1-10,39.4-10,39.4H64.8z"/>
	</g>
	<g>
		<path class="st0" d="M51.4,26.2c1.1-0.5,1.9-1.7,1.9-3c0-1.8-1.5-3.3-3.3-3.3s-3.3,1.5-3.3,3.3c0,1.3,0.8,2.4,1.9,3
			c-1.3,1.4-2.5,2.7-3.4,4l5.1,10c0.2,0.5,0.1,1.1-0.4,1.3c-0.1,0.1-0.3,0.1-0.4,0.1c-0.4,0-0.7-0.2-0.9-0.5L43.9,32
			c-7.2,11.5,1.4,17.5,1.4,17.5H50h4.8C54.8,49.5,66.3,41.5,51.4,26.2z"/>
	</g>
</g>
<rect x="7.8" y="7.3" class="st1" width="84.3" height="110.3"/>
</svg>
