<?xml version="1.0" encoding="utf-8"?>
<!-- Generator: Adobe Illustrator 20.1.0, SVG Export Plug-In . SVG Version: 6.00 Build 0)  -->
<svg version="1.1" id="Livello_1" xmlns="http://www.w3.org/2000/svg" xmlns:xlink="http://www.w3.org/1999/xlink" x="0px" y="0px"
	 viewBox="0 0 100 125" style="enable-background:new 0 0 100 125;" xml:space="preserve">
<style type="text/css">
	.st0{fill:#FFFFFF;stroke:#000000;stroke-miterlimit:10;}
	.st1{fill:none;stroke:#000000;stroke-width:0.25;stroke-miterlimit:10;}
</style>
<g>
	<g>
		<path class="st0" d="M63.9,93c0,1.2-0.8,2.2-1.8,2.2H32.5c-1,0-1.8-1-1.8-2.2l0,0c0-1.2,0.8-2.2,1.8-2.2h29.6
			C63.1,90.8,63.9,91.8,63.9,93L63.9,93z"/>
	</g>
	<g>
		<path class="st0" d="M29.6,106.3v-7.1c0-0.8,0.6-1.5,1.2-1.5h32.9c0.6,0,1.2,0.7,1.2,1.5v7.1H29.6z"/>
	</g>
	<g>
		<path class="st0" d="M33.5,87c0,0-5.6-6.8-4.6-18.2c0,0-3.4-21.1,2.2-27.5c0,0,4-6.5,13.7-10.4c0,0-0.5-6.9,6.7-12.2
			c0,0-0.6,6.5,0.1,12.2c0,0,8.5,2.9,8,8.4l0,0l10.5,15.3c0,0,5.9,8-3.9,10.6c0,0-3,0.8-3.7-3c0,0-0.4-1.1-1.8-1.6
			c-1.4-0.5-9.3-0.8-10.6-4.5c0,0-1.4,1.8,0.2,4.7l11.1,20.8c0,0,2.2,4.7-1.4,6.8h-26L33.5,87z"/>
	</g>
</g>
<rect x="7.8" y="7.3" class="st1" width="84.3" height="110.3"/>
</svg>
