<?xml version="1.0" encoding="utf-8"?>
<!-- Generator: Adobe Illustrator 20.1.0, SVG Export Plug-In . SVG Version: 6.00 Build 0)  -->
<svg version="1.1" id="Livello_1" xmlns="http://www.w3.org/2000/svg" xmlns:xlink="http://www.w3.org/1999/xlink" x="0px" y="0px"
	 viewBox="0 0 100 125" style="enable-background:new 0 0 100 125;" xml:space="preserve">
<style type="text/css">
	.st0{fill:none;}
	.st1{fill:none;stroke:#000000;stroke-width:0.25;stroke-miterlimit:10;}
</style>
<g>
	<g>
		<path d="M67.5,93.9c0,1-0.8,1.9-1.9,1.9H34.4c-1,0-1.9-0.8-1.9-1.9l0,0c0-1,0.8-1.9,1.9-1.9h31.3C66.7,92,67.5,92.8,67.5,93.9
			L67.5,93.9z"/>
	</g>
	<g>
		<path d="M31.4,105v-6c0-0.7,0.6-1.2,1.2-1.2h34.8c0.7,0,1.2,0.6,1.2,1.2v6H31.4z"/>
	</g>
	<g>
		<path d="M65.7,90c0,0-10.6-18.3-10.6-41.7H45C45,71.7,34.3,90,34.3,90H65.7z"/>
	</g>
	<g>
		<polygon points="55.5,30.9 51.5,30.9 51.5,26.9 55.5,26.9 55.5,24 51.5,24 51.5,20 48.5,20 48.5,24 44.5,24 44.5,26.9 48.5,26.9 
			48.5,30.9 44.5,30.9 39.1,38.8 44.5,46.2 55.5,46.2 60.9,38.8 		"/>
	</g>
</g>
<rect x="7.8" y="7.3" class="st0" width="84.3" height="110.3"/>
<rect y="0" class="st1" width="100" height="125"/>
</svg>
