<?xml version="1.0" encoding="utf-8"?>
<!-- Generator: Adobe Illustrator 20.1.0, SVG Export Plug-In . SVG Version: 6.00 Build 0)  -->
<svg version="1.1" id="Livello_1" xmlns="http://www.w3.org/2000/svg" xmlns:xlink="http://www.w3.org/1999/xlink" x="0px" y="0px"
	 viewBox="0 0 100 125" style="enable-background:new 0 0 100 125;" xml:space="preserve">
<style type="text/css">
	.st0{fill:#FFFFFF;stroke:#000000;stroke-miterlimit:10;}
	.st1{fill:none;stroke:#000000;stroke-width:0.25;stroke-miterlimit:10;}
</style>
<g>
	<g>
		<path class="st0" d="M69.6,86.4c0,1.4-0.9,2.5-2.1,2.5h-35c-1.2,0-2.1-1.1-2.1-2.5l0,0c0-1.4,0.9-2.5,2.1-2.5h35
			C68.7,83.9,69.6,85,69.6,86.4L69.6,86.4z"/>
	</g>
	<g>
		<path class="st0" d="M29.2,101.1v-7.9c0-0.9,0.6-1.6,1.4-1.6h38.9c0.8,0,1.4,0.7,1.4,1.6v7.9C70.8,101.1,29.2,101.1,29.2,101.1z"
			/>
	</g>
	<g>
		<path class="st0" d="M67.5,81.2c0,0-11.9-13.3-11.9-30.2H44.4c0,16.9-11.9,30.2-11.9,30.2H67.5z"/>
	</g>
	<g>
		<ellipse class="st0" cx="50" cy="36.1" rx="10.4" ry="12.2"/>
	</g>
</g>
<rect x="7.8" y="7.3" class="st1" width="84.3" height="110.3"/>
</svg>
