<?xml version="1.0" encoding="utf-8"?>
<!-- Generator: Adobe Illustrator 20.1.0, SVG Export Plug-In . SVG Version: 6.00 Build 0)  -->
<svg version="1.1" id="Livello_1" xmlns="http://www.w3.org/2000/svg" xmlns:xlink="http://www.w3.org/1999/xlink" x="0px" y="0px"
	 viewBox="0 0 100 125" style="enable-background:new 0 0 100 125;" xml:space="preserve">
<style type="text/css">
	.st0{fill:#FFFFFF;stroke:#000000;stroke-miterlimit:10;}
	.st1{fill:none;stroke:#000000;stroke-width:0.25;stroke-miterlimit:10;}
</style>
<g>
	<g>
		<path class="st0" d="M67.7,96.3c0,1-0.8,1.9-1.9,1.9H34.2c-1,0-1.9-0.8-1.9-1.9l0,0c0-1,0.8-1.9,1.9-1.9h31.6
			C66.8,94.4,67.7,95.3,67.7,96.3L67.7,96.3z"/>
	</g>
	<g>
		<path class="st0" d="M31.2,107.6v-6.1c0-0.7,0.6-1.3,1.3-1.3h35.1c0.7,0,1.3,0.6,1.3,1.3v6.1H31.2z"/>
	</g>
	<g>
		<path class="st0" d="M65.8,92.4c0,0-10.7-18.5-10.7-42H44.9c0,23.6-10.7,42-10.7,42H65.8z"/>
	</g>
	<g>
		<path class="st0" d="M66.9,31.2c-1.3,0-2.3,1-2.3,2.3v0.1l-6.2,1l0.7-9.6c0.1,0,0.1,0,0.2,0c1.2,0,2.3-1,2.3-2.3
			c0-1.2-1-2.3-2.3-2.3c-1.2,0-2.3,1-2.3,2.3c0,0.8,0.4,1.5,1,1.9l-5.3,8.7l-2.3-11.4c1-0.2,1.8-1.1,1.8-2.2c0-1.2-1-2.3-2.3-2.3
			c-1.2,0-2.3,1-2.3,2.3c0,1.1,0.8,2,1.8,2.2l-2.3,11.4l-5.3-8.7c0.6-0.4,1-1.1,1-1.9c0-1.2-1-2.3-2.3-2.3c-1.2,0-2.3,1-2.3,2.3
			c0,1.2,1,2.3,2.3,2.3c0.1,0,0.1,0,0.2,0l0.7,9.6l-6.2-1v-0.1c0-1.2-1-2.3-2.3-2.3s-2.3,1-2.3,2.3c0,1.2,1,2.3,2.3,2.3
			c0.5,0,1-0.2,1.4-0.5l9,13H50h6.5l9-13c0.4,0.3,0.9,0.5,1.4,0.5c1.2,0,2.3-1,2.3-2.3C69.1,32.2,68.1,31.2,66.9,31.2z"/>
	</g>
</g>
<rect y="0" class="st1" width="100" height="125"/>
</svg>
