<svg xmlns="http://www.w3.org/2000/svg" xmlns:xlink="http://www.w3.org/1999/xlink" version="1.1" x="0px" y="0px" viewBox="0 0 100 125" enable-background="new 0 0 100 100" xml:space="preserve"><g><path d="M67.813,83.313H32.187c-1.509,0-2.737-1.229-2.737-2.738s1.228-2.738,2.737-2.738h35.625c1.51,0,2.738,1.229,2.738,2.738   S69.322,83.313,67.813,83.313z M32.187,79.037c-0.848,0-1.537,0.689-1.537,1.537s0.689,1.537,1.537,1.537h35.625   c0.848,0,1.537-0.689,1.537-1.537s-0.689-1.537-1.537-1.537H32.187z"/></g><g><path d="M71.807,93.914H28.193V86.48c0-1.109,0.903-2.014,2.014-2.014h39.586c1.111,0,2.014,0.904,2.014,2.014V93.914z    M29.393,92.715h41.214V86.48c0-0.447-0.365-0.813-0.814-0.813H30.207c-0.449,0-0.813,0.365-0.813,0.813V92.715z"/></g><g><path d="M67.834,76.762H31.123l0.522-0.9c0.121-0.207,12.016-21.027,12.016-47.168v-0.601H56.34v0.601   c0,26.141,11.895,46.961,12.016,47.168l0.521,0.9H67.834z M33.175,75.563h33.649c-2.26-4.268-11.525-23.156-11.684-46.269H44.859   C44.7,52.406,35.435,71.295,33.175,75.563z"/></g><g><path d="M61.348,26.893H38.652c-1.244,0-2.256-1.077-2.256-2.401l-1.199-15.96c-0.002-1.369,1.01-2.446,2.254-2.446h3.481v11.679   h1.321V6.085h7.084v11.679h1.321V6.085h7.085v11.679h1.32V6.085h3.48c1.244,0,2.256,1.077,2.256,2.401l-1.201,16.05   C63.604,25.815,62.59,26.893,61.348,26.893z M37.452,7.286c-0.582,0-1.056,0.539-1.056,1.2l1.199,15.96   c0.001,0.707,0.475,1.246,1.057,1.246h22.695c0.582,0,1.055-0.539,1.055-1.201l1.203-16.05c-0.002-0.617-0.477-1.155-1.059-1.155   h-2.279v11.679h-3.723V7.286h-4.684v11.679h-3.722V7.286h-4.684v11.679h-3.722V7.286H37.452z"/></g><text x="0" y="115" fill="#000000" font-size="5px" font-weight="bold" font-family="'Helvetica Neue', Helvetica, Arial-Unicode, Arial, Sans-serif">Created by Bakunetsu Kaito</text><text x="0" y="120" fill="#000000" font-size="5px" font-weight="bold" font-family="'Helvetica Neue', Helvetica, Arial-Unicode, Arial, Sans-serif">from the Noun Project</text></svg>