<?xml version="1.0" encoding="utf-8"?>
<!-- Generator: Adobe Illustrator 20.1.0, SVG Export Plug-In . SVG Version: 6.00 Build 0)  -->
<svg version="1.1" id="Livello_1" xmlns="http://www.w3.org/2000/svg" xmlns:xlink="http://www.w3.org/1999/xlink" x="0px" y="0px"
	 viewBox="0 0 100 125" style="enable-background:new 0 0 100 125;" xml:space="preserve">
<style type="text/css">
	.st0{fill:none;stroke:#000000;stroke-width:0.25;stroke-miterlimit:10;}
</style>
<g>
	<g>
		<path d="M69.9,92.7c0,1.2-1,2.1-2.1,2.1H32.2c-1.2,0-2.1-1-2.1-2.1l0,0c0-1.2,1-2.1,2.1-2.1h35.6C69,90.6,69.9,91.6,69.9,92.7
			L69.9,92.7z"/>
	</g>
	<g>
		<path d="M28.8,105.5v-6.8c0-0.8,0.6-1.4,1.4-1.4h39.6c0.8,0,1.4,0.6,1.4,1.4v6.8H28.8z"/>
	</g>
	<g>
		<path d="M67.8,88.3c0,0-12.1-20.8-12.1-47.5H44.3c0,26.6-12.1,47.5-12.1,47.5H67.8z"/>
	</g>
	<g>
		<path d="M62.5,19.5h-2.9v11.7h-2.5V19.5h-5.9v11.7h-2.5V19.5h-5.9v11.7h-2.5V19.5h-2.9c-0.9,0-1.7,0.8-1.7,1.8l1.2,16
			c0,1,0.7,1.8,1.7,1.8h22.7c0.9,0,1.7-0.8,1.7-1.8l1.2-16C64.2,20.3,63.5,19.5,62.5,19.5z"/>
	</g>
</g>
<rect x="7.8" y="7.3" class="st0" width="84.3" height="110.3"/>
</svg>
