<svg xmlns="http://www.w3.org/2000/svg" xmlns:xlink="http://www.w3.org/1999/xlink" version="1.1" x="0px" y="0px" viewBox="0 0 100 125" enable-background="new 0 0 100 100" xml:space="preserve"><g><path d="M75.364,76.138c0,1.501-1.219,2.718-2.719,2.718H27.353c-1.501,0-2.718-1.217-2.718-2.718l0,0   c0-1.501,1.217-2.718,2.718-2.718h45.293C74.146,73.42,75.364,74.637,75.364,76.138L75.364,76.138z"/></g><g><path d="M23.037,92.337v-8.688c0-0.993,0.806-1.798,1.798-1.798h50.329c0.992,0,1.798,0.805,1.798,1.798v8.688H23.037z"/></g><g><path d="M72.674,70.529c0,0-15.379-14.52-15.379-33.058H42.703c0,18.539-15.379,33.058-15.379,33.058H72.674z"/></g><g><circle cx="50" cy="21.069" r="13.406"/></g><text x="0" y="115" fill="#000000" font-size="5px" font-weight="bold" font-family="'Helvetica Neue', Helvetica, Arial-Unicode, Arial, Sans-serif">Created by Bakunetsu Kaito</text><text x="0" y="120" fill="#000000" font-size="5px" font-weight="bold" font-family="'Helvetica Neue', Helvetica, Arial-Unicode, Arial, Sans-serif">from the Noun Project</text></svg>